# xmcd CD database file
#
# Track frame offsets:
#	150
#	15376
#	48660
#	69468
#	88198
#	118688
#	141699
#	196227
#	218109
#
# Disc length: 3267 seconds
#
# Revision: 0
# Processed by: cddbd v1.5.2PL0 Copyright (c) Steve Scherf et al.
# Submitted via: Feurio! 1.68 - http://www.feurio.com
#
DISCID=860cc109
DTITLE=Buddy Guy - Sweet tea
DYEAR=1900
DGENRE=
TTITLE0=Done Got Old
TTITLE1=Baby Please Don't Leave Me
TTITLE2=Look What All You Got
TTITLE3=Stay All Night
TTITLE4=Tramp
TTITLE5=She´s Got The Devil In Her
TTITLE6=I Gotta Try You Girl
TTITLE7=Who´s Been Foolin`you
TTITLE8=It`s A Jungle Out There
EXTD=
EXTT0=
EXTT1=
EXTT2=
EXTT3=
EXTT4=
EXTT5=
EXTT6=
EXTT7=
EXTT8=
PLAYORDER=
